<?xml version="1.0" encoding="UTF-8"?>
<!DOCTYPE svg PUBLIC "-//W3C//DTD SVG 1.1//EN" "http://www.w3.org/Graphics/SVG/1.1/DTD/svg11.dtd">
<!-- Creator: CorelDRAW X7 -->
<svg xmlns="http://www.w3.org/2000/svg" xml:space="preserve" width="58.5332in" height="58.5332in" version="1.1" style="shape-rendering:geometricPrecision; text-rendering:geometricPrecision; image-rendering:optimizeQuality; fill-rule:evenodd; clip-rule:evenodd"
viewBox="0 0 58533 58533"
 xmlns:xlink="http://www.w3.org/1999/xlink">
 <defs>
  <style type="text/css">
   <![CDATA[
    .fil2 {fill:#FEFEFE}
    .fil3 {fill:#ED3237}
    .fil0 {fill:#B1D7FC}
    .fil1 {fill:#FEFEFE;fill-rule:nonzero}
    .fil4 {fill:#2563EA;fill-rule:nonzero}
   ]]>
  </style>
 </defs>
 <g id="Layer_x0020_1">
  <metadata id="CorelCorpID_0Corel-Layer"/>
  <g id="_2794324841056">
   <rect class="fil0" width="58533" height="58533"/>
   <g>
    <path class="fil1" d="M29267 15027c3916,0 7476,1602 10057,4183 2580,2580 4182,6140 4182,10057 0,3916 -1602,7476 -4182,10057 -2581,2580 -6141,4182 -10057,4182 -3917,0 -7477,-1602 -10057,-4182 -2581,-2581 -4183,-6141 -4183,-10057 0,-3917 1602,-7477 4183,-10057 2580,-2581 6140,-4183 10057,-4183zm8999 5240c-2310,-2310 -5496,-3744 -8999,-3744 -3504,0 -6690,1434 -9000,3744 -2310,2310 -3744,5496 -3744,9000 0,3503 1434,6689 3744,8999 2310,2310 5496,3744 9000,3744 3503,0 6689,-1434 8999,-3744 2310,-2310 3744,-5496 3744,-8999 0,-3504 -1434,-6690 -3744,-9000z"/>
    <path class="fil2" d="M30588 26119c-2,-5 0,-1 0,0zm-1348 2230c-70,18 -107,46 -137,98 -52,89 -70,168 -4,267 56,85 149,126 261,102 303,-67 197,-553 -120,-467zm-654 -632c-164,-418 62,-615 -80,-795 -34,-43 -122,-83 -183,-78 -12,2 -30,12 -31,13 -19,4 -47,-11 -110,42 -88,74 -95,246 -108,352 -12,105 0,325 25,427 5,21 9,39 15,60l6 23c47,166 117,312 225,446 49,60 91,106 152,161 266,241 526,-95 349,-295 -106,-119 -181,-155 -260,-356zm436 1317c-70,-20 -136,-43 -191,-62l-251 -123c-23,-15 -47,-31 -75,-50 -92,-60 -192,-138 -264,-222 -40,-47 -70,-69 -114,-132 -148,-215 -255,-402 -311,-671 -68,-325 -25,-559 74,-840 113,-324 307,-700 483,-998 142,-242 422,-699 568,-904 58,-81 143,-208 202,-294 67,-95 125,-217 243,-245 162,-38 214,97 294,199l246 356 11 17 116 174 4 6 107 165 3 5 56 90c10,15 21,32 27,42l244 405 3 5 84 151c7,10 8,12 7,11 1,1 2,3 4,6l127 243c35,69 57,112 81,164l22 46 3 7 211 573c28,144 50,301 32,450 -22,173 -61,337 -131,489l-80 165 -14 24 -82 123c-10,14 -7,9 -16,22 -17,24 -119,150 -177,198l-5 4 -212 171 -5 4 -193 108c-14,7 -26,15 -42,22l-175 68c-90,33 -196,52 -302,66l-167 11c-124,1 -228,-12 -347,-27 -31,-4 -20,-2 -53,-11 -15,-3 -44,-11 -45,-11zm-4343 -6330c-430,0 -779,349 -779,779l0 11567c0,430 349,779 779,779l2558 0 20 0 6 -1 14 0 8 -1 12 0 8 -1 11 -1 8 -1 11 -1 9 -1 11 -2 8 -1 10 -2 9 -2 10 -2 9 -1 10 -3 9 -2 10 -2 8 -2 10 -3 9 -2 9 -3 9 -3 9 -3 8 -3 10 -3 8 -3 9 -4 9 -3 9 -4 8 -3 9 -4 8 -4 9 -4 8 -4 9 -4 8 -4 8 -5 8 -4 9 -5 7 -4 9 -5 7 -5 8 -5 8 -5 8 -5 7 -5 8 -5 7 -5 9 -6 6 -5 8 -6 7 -5 8 -7 6 -5 8 -7 6 -5 8 -7 6 -5 8 -7 5 -6 8 -7 6 -6 6 -7 7 -6 6 -7 6 -7 9 -9 3 -4 0 0 12 -14 1 -2 11 -13 3 -4 8 -10 4 -6 7 -9 4 -7 6 -8 5 -8 6 -8 4 -7 6 -9 4 -6 5 -10 4 -7 5 -9 4 -7 5 -9 4 -8 4 -9 4 -8 4 -9 4 -7 4 -10 3 -8 4 -9 3 -8 4 -10 3 -8 3 -9 3 -9 3 -9 2 -9 3 -9 3 -9 2 -10 3 -8 2 -10 2 -9 2 -10 2 -9 2 -9 2 -10 1 -9 2 -9 1 -11 1 -9 1 -10 1 -9 1 -10 1 -10 1 -10 0 -9 0 -3 0 -1c1,-11 1,-22 1,-34 0,-11 0,-22 -1,-34l0 -1 0 -3357 1632 0c3299,0 4986,-2021 4986,-4449 0,-2651 -1687,-4505 -4986,-4505l-4968 0z"/>
    <path class="fil3" d="M28586 27717c79,201 154,237 260,356 177,200 -83,536 -349,295 -61,-55 -103,-101 -152,-161 -108,-134 -178,-280 -225,-446l-6 -23c-6,-21 -10,-39 -15,-60 -25,-102 -37,-322 -25,-427 13,-106 20,-278 108,-352 63,-53 91,-38 110,-42 1,-1 19,-11 31,-13 61,-5 149,35 183,78 142,180 -84,377 80,795zm-459 728c44,63 74,85 114,132 72,84 172,162 264,222 28,19 52,35 75,50l251 123c55,19 121,42 191,62 1,0 30,8 45,11 33,9 22,7 53,11 119,15 223,28 347,27l167 -11c106,-14 212,-33 302,-66l175 -68c16,-7 28,-15 42,-22l193 -108 5 -4 212 -171 5 -4c58,-48 160,-174 177,-198 9,-13 6,-8 16,-22l82 -123 14 -24 80 -165c70,-152 109,-316 131,-489 18,-149 -4,-306 -32,-450l-211 -573 -3 -7 -22 -46c-24,-52 -46,-95 -81,-164l-127 -243 -4 -6c1,1 0,-1 -7,-11l-84 -151 -3 -5 -244 -405 -27 -42 -56 -90 -3 -5 -107 -165 -4 -6 -116 -174 -11 -17 -246 -356c-80,-102 -132,-237 -294,-199 -118,28 -176,150 -243,245 -59,86 -144,213 -202,294 -146,205 -426,662 -568,904 -176,298 -370,674 -483,998 -99,281 -142,515 -74,840 56,269 163,456 311,671zm976 2c30,-52 67,-80 137,-98 317,-86 423,400 120,467 -112,24 -205,-17 -261,-102 -66,-99 -48,-178 4,-267z"/>
    <path class="fil4" d="M29267 14653c1970,0 3853,396 5574,1111 1788,744 3398,1833 4747,3181 1349,1349 2437,2959 3181,4748 715,1720 1111,3604 1111,5574 0,1970 -396,3853 -1111,5574 -744,1788 -1832,3398 -3181,4747 -1349,1349 -2959,2437 -4747,3181 -1721,715 -3604,1111 -5574,1111 -1970,0 -3854,-396 -5574,-1111 -1789,-744 -3399,-1832 -4748,-3181 -1348,-1349 -2437,-2959 -3181,-4747 -715,-1721 -1111,-3604 -1111,-5574l2 0c0,-619 502,-1121 1121,-1121 619,0 1121,502 1121,1121 0,2 0,4 0,6 1,1666 335,3257 939,4709 629,1512 1552,2876 2696,4020 2242,2242 5334,3634 8735,3634 1668,0 3261,-334 4715,-939 1512,-629 2876,-1551 4020,-2695 1144,-1144 2066,-2508 2695,-4020 605,-1454 939,-3047 939,-4715 0,-1669 -334,-3262 -939,-4716 -629,-1512 -1551,-2876 -2695,-4019 -2243,-2243 -5335,-3635 -8735,-3635l0 -2c-9,0 -17,0 -26,0 -619,0 -1121,-502 -1121,-1121 0,-619 502,-1121 1121,-1121 9,0 17,1 26,1l0 -1z"/>
   </g>
  </g>
 </g>
</svg>
